<svg width="572" height="499" viewBox="0 0 572 499" xmlns="http://www.w3.org/2000/svg"><title>discover</title><g fill="none" fill-rule="evenodd"><path d="M492.972 101.395a1247.91 1247.91 0 0 0-99.906-11.904l69.47-69.44c1.986-1.983 3.31-5.29 3.31-7.935 0-2.645-1.324-5.952-3.31-7.936-4.63-4.63-11.246-4.63-15.878 0l-82.703 82.666L353.37 63.7H218.396L207.81 86.845 125.108 4.18c-1.985-1.985-5.293-3.307-7.94-3.307-2.646 0-5.954 1.322-7.94 3.306-4.63 4.63-4.63 11.242 0 15.87L178.7 89.49c-33.082 2.647-66.825 6.615-99.907 11.905C35.126 108.67.72 146.365.72 181.417V401.64c0 35.05 34.406 72.747 78.073 80.022 136.957 21.824 277.884 21.824 414.84 0 43.668-7.275 78.073-44.97 78.073-80.02V181.416c0-35.05-35.066-72.747-78.734-80.022z" fill="#000"/><g fill="#FFF"><path d="M80.778 294.505c0-27.115 9.263-49.6 27.788-68.118 18.526-18.517 41.02-27.776 68.148-27.776 12.57 0 23.82 2.647 35.728 7.276 11.248 4.63 21.834 11.243 30.435 20.5 9.263 9.26 16.54 19.18 21.172 31.084 4.63 11.904 7.277 23.808 7.277 36.373 0 13.227-1.985 25.13-6.616 37.035-4.63 11.904-11.247 21.824-19.848 31.083-9.263 9.26-19.187 16.534-31.097 21.825-11.91 5.29-23.818 7.274-37.05 7.274-13.895 0-26.466-2.646-37.714-7.275-11.908-4.63-21.832-11.904-31.095-21.824-8.6-9.258-15.218-19.178-19.187-31.082-5.293-11.243-7.94-23.147-7.94-36.373zm95.936-58.198c-16.54 0-29.773 5.29-41.02 16.534-11.25 11.243-16.542 25.13-16.542 41.003 0 15.872 5.955 29.76 17.203 41.664 11.247 11.904 25.142 17.856 40.36 17.856 15.878 0 29.772-5.952 40.358-17.194 11.248-11.244 16.54-25.793 16.54-42.988 0-15.872-5.292-29.1-16.54-40.34-11.91-10.583-25.142-16.535-40.36-16.535zM301.1 294.505c0-27.115 9.263-49.6 27.788-68.118 18.526-18.517 41.02-27.776 68.148-27.776 12.57 0 23.82 2.647 35.728 7.276 11.248 4.63 21.834 11.243 30.435 20.5 9.262 9.26 16.54 19.18 21.17 31.084 4.632 11.904 7.28 23.808 7.28 36.373 0 13.227-1.986 25.13-6.617 37.035-4.632 11.904-11.248 21.824-19.85 31.083-9.262 9.26-19.186 16.534-31.096 21.825-11.91 5.29-23.818 7.274-37.05 7.274-13.895 0-26.466-2.646-37.714-7.275-11.247-4.63-21.833-11.904-31.096-21.824-8.6-9.258-15.218-19.178-19.187-31.082-5.955-11.243-7.94-23.147-7.94-36.373zm95.275-58.198c-16.54 0-29.774 5.29-41.02 16.534-11.25 11.243-16.542 25.13-16.542 41.003 0 15.872 5.955 29.76 17.202 41.664 11.248 11.904 25.142 17.856 40.36 17.856 15.88 0 29.773-5.952 40.36-17.194 11.246-11.244 16.54-25.793 16.54-42.988 0-15.872-5.294-29.1-16.54-40.34-11.25-10.583-24.48-16.535-40.36-16.535z"/></g></g></svg>