<svg width="565" height="502" viewBox="0 0 565 502" xmlns="http://www.w3.org/2000/svg"><title>people</title><g transform="translate(1 -4)" fill="#000" fill-rule="evenodd"><path d="M281.2 396.11l-125.146 95.276c-36.676 27.922-55.835 14.72-42.792-29.493l43.99-149.116-131.776-81.215c-39.237-24.182-33.68-43.785 12.417-43.785h164.43l51.71-150.24c15.004-43.59 39.328-43.59 54.33 0l51.71 150.24h164.432c46.094 0 51.658 19.6 12.417 43.785l-131.777 81.215 43.99 149.116c13.044 44.21-6.116 57.414-42.79 29.493L281.198 396.11zm.3-41.943c40.307 0 72.98-32.646 72.98-72.917 0-40.27-32.673-72.917-72.98-72.917s-72.98 32.646-72.98 72.917c0 40.27 32.673 72.917 72.98 72.917z"/><ellipse cx="281.5" cy="281.25" rx="31.278" ry="31.25"/></g></svg>