<svg width="460" height="500" viewBox="0 0 460 500" xmlns="http://www.w3.org/2000/svg"><title>following</title><g fill="#000" fill-rule="evenodd"><path d="M332.167 250c0-57.53-46.637-104.167-104.167-104.167S123.833 192.47 123.833 250 170.47 354.167 228 354.167 332.167 307.53 332.167 250zM165.5 250c0-34.518 27.982-62.5 62.5-62.5s62.5 27.982 62.5 62.5-27.982 62.5-62.5 62.5-62.5-27.982-62.5-62.5zM290.5 62.5C290.5 27.982 262.518 0 228 0s-62.5 27.982-62.5 62.5S193.482 125 228 125s62.5-27.982 62.5-62.5zm-83.333 0c0-11.506 9.327-20.833 20.833-20.833 11.506 0 20.833 9.327 20.833 20.833 0 11.506-9.327 20.833-20.833 20.833-11.506 0-20.833-9.327-20.833-20.833zM290.5 437.5c0-34.518-27.982-62.5-62.5-62.5s-62.5 27.982-62.5 62.5S193.482 500 228 500s62.5-27.982 62.5-62.5zm-83.333 0c0-11.506 9.327-20.833 20.833-20.833 11.506 0 20.833 9.327 20.833 20.833 0 11.506-9.327 20.833-20.833 20.833-11.506 0-20.833-9.327-20.833-20.833zM427.96 202.003c29.893-17.26 40.135-55.483 22.877-85.376-17.26-29.894-55.484-40.136-85.377-22.877-29.893 17.26-40.136 55.483-22.877 85.377 17.26 29.893 55.484 40.135 85.377 22.876zm-41.667-72.17c9.965-5.752 22.706-2.338 28.46 7.627 5.752 9.964 2.338 22.706-7.626 28.46-9.965 5.752-22.706 2.338-28.46-7.627-5.752-9.964-2.338-22.706 7.626-28.46zM94.627 410.337c29.893-17.26 40.135-55.484 22.876-85.377-17.26-29.893-55.483-40.136-85.376-22.877C2.233 319.343-8.01 357.567 9.25 387.46c17.26 29.893 55.483 40.135 85.377 22.877zm-41.667-72.17c9.964-5.752 22.706-2.338 28.46 7.626 5.752 9.965 2.338 22.706-7.627 28.46-9.964 5.752-22.706 2.338-28.46-7.626-5.752-9.965-2.338-22.706 7.627-28.46zM365.46 410.337c29.893 17.258 68.118 7.016 85.377-22.877 17.258-29.893 7.016-68.118-22.877-85.377-29.893-17.26-68.118-7.016-85.377 22.877-17.26 29.893-7.016 68.118 22.877 85.377zm41.667-72.17c9.964 5.754 13.378 18.495 7.625 28.46-5.753 9.964-18.494 13.378-28.46 7.625-9.963-5.753-13.377-18.494-7.624-28.46 5.753-9.963 18.494-13.377 28.46-7.624zM32.127 202.003c29.893 17.26 68.117 7.017 85.376-22.876 17.26-29.894 7.017-68.118-22.876-85.377C64.733 76.49 26.51 86.733 9.25 116.627c-17.26 29.893-7.017 68.117 22.877 85.376zm41.666-72.17c9.965 5.754 13.38 18.496 7.626 28.46-5.754 9.965-18.496 13.38-28.46 7.626-9.965-5.754-13.38-18.496-7.626-28.46 5.753-9.965 18.495-13.38 28.46-7.626z"/></g></svg>