<svg width="90" height="90" viewBox="0 0 90 90" xmlns="http://www.w3.org/2000/svg"><title>noun_79685_cc</title><path d="M75.325.01h1.904c1.097 0 .977-.087.977 1.01V2.7c0 .704.577 1.282 1.283 1.282h5.238c.705 0 1.283-.577 1.283-1.283V.765c0-.804-.104-.754.706-.754h2.542c.83 0 .73-.055.73.77v86.895c0 2.697.097 2.3-2.586 2.3H76.667c-2.374 0-2.332.384-2.332-2.007 0-.157-.014-.308-.046-.45v-1.53a3.918 3.918 0 0 0-3.908-3.907h-50.79a3.918 3.918 0 0 0-3.906 3.907v3.555c-.044.476-.28.432-1.336.432h-1.283c-1.46 0-1.26.07-1.26-1.384v-1.286c0-.706-.578-1.283-1.284-1.283H5.285c-.705 0-1.283.577-1.283 1.283v.883c0 1.554.4 1.787-1.193 1.787H1.452c-1.824 0-1.416-.147-1.41-1.937C.167 59.555.035 30.483.033 2.028.033-.256-.11.01 2.183.01h2.87c.072.013.14.02.214.02h5.238c.073 0 .147-.006.218-.02h3.11c1.507 0 1.804-.096 1.853.654v3.25a3.918 3.918 0 0 0 3.907 3.907h50.79a3.918 3.918 0 0 0 3.908-3.907v-2.47c.032-.188.047-.388.047-.607 0-.997 0-.825.988-.825zM50.85 54.643c-.054-6.857.04-13.663.027-20.556a39.743 39.743 0 0 0 3.538 2.127 99.21 99.21 0 0 0 1.78.924c1.574.795 3.11 1.478 4.778 2.274.353.17.712.333 1.034.39.58.106.58-.614.592-1.348 0-2.56.025-4.792 0-7.354-.006-.656-.03-.914-.548-1.27l-4.53-2.59a37.462 37.462 0 0 1-4.698-3.18L48.3 20.51c-.816-.55-1.342-.25-1.338.796l.025 7.787-.05 24.21c-2.074-1.546-4.816-2.49-7.82-2.49-6.473 0-11.723 4.37-11.723 9.757 0 5.39 5.25 9.758 11.724 9.758 4.35 0 8.296-1.876 10.17-4.9 1.925-3.106 1.583-7.94 1.56-10.786zM19.687 11.768a4.013 4.013 0 0 0-4.002 4.003v58.44a4.017 4.017 0 0 0 4.002 4.003h50.646a4.02 4.02 0 0 0 4.003-4.003V15.77c0-2.197-1.8-4.003-4.003-4.003H19.688zm59.82 46.93c-.704 0-1.282.578-1.282 1.284v5.238c0 .706.577 1.283 1.283 1.283h5.237c.705 0 1.283-.577 1.283-1.283v-5.238c0-.706-.577-1.283-1.283-1.283H79.51zm.047 15.618c-.706 0-1.283.577-1.283 1.283v5.237c0 .706.577 1.283 1.283 1.283h5.238c.706 0 1.283-.577 1.283-1.283V75.6c0-.707-.577-1.284-1.283-1.284h-5.238zm-.064-46.86c-.704 0-1.282.578-1.282 1.284v5.238c0 .706.577 1.283 1.283 1.283h5.24c.704 0 1.282-.576 1.282-1.282V28.74c0-.706-.577-1.283-1.283-1.283h-5.24zm.046 15.618c-.706 0-1.283.577-1.283 1.283v5.238c0 .706.577 1.283 1.283 1.283h5.238c.705 0 1.283-.577 1.283-1.283v-5.238c0-.706-.577-1.283-1.283-1.283h-5.238zm0-31.28c-.706 0-1.283.578-1.283 1.284v5.238c0 .705.577 1.283 1.283 1.283h5.238c.705 0 1.283-.578 1.283-1.284v-5.238c0-.706-.577-1.283-1.283-1.283h-5.238zM5.286 54.747C4.58 54.746 4 55.323 4 56.03v5.237c0 .706.577 1.283 1.283 1.283h5.238c.706 0 1.283-.577 1.283-1.283V56.03c0-.707-.577-1.284-1.283-1.284H5.285zm.044 15.617c-.705 0-1.283.577-1.283 1.283v5.238c0 .706.577 1.283 1.283 1.283h5.238c.705 0 1.283-.577 1.283-1.283v-5.238c0-.706-.576-1.283-1.282-1.283H5.33zm-.064-46.86c-.706 0-1.283.578-1.283 1.284v5.238c0 .706.577 1.283 1.283 1.283h5.238c.706 0 1.283-.577 1.283-1.283v-5.238c0-.706-.577-1.283-1.283-1.283H5.266zm.045 15.618c-.704 0-1.282.578-1.282 1.284v5.238c0 .706.577 1.283 1.283 1.283h5.24c.705 0 1.282-.577 1.282-1.283v-5.238c0-.706-.577-1.283-1.283-1.283H5.31zm0-31.277c-.704 0-1.282.577-1.282 1.283v5.238c0 .705.577 1.283 1.283 1.283h5.24c.705 0 1.282-.577 1.282-1.283V9.126c0-.706-.577-1.283-1.283-1.283H5.31z" fill="#000" fill-rule="evenodd"/></svg>