<svg width="601" height="500" viewBox="0 0 601 500" xmlns="http://www.w3.org/2000/svg"><title>shows</title><g transform="translate(1)" fill="#000" fill-rule="evenodd"><circle cx="483.191" cy="112.5" r="37.5"/><path d="M-.426 49.95v325.1c0 27.586 22.38 49.95 49.996 49.95h500.01c27.61 0 49.994-22.363 49.994-49.95V49.95c0-27.586-22.38-49.95-49.995-49.95H49.57C21.958 0-.426 22.363-.426 49.95zm550.005.01l-.006 325.09c0-.007-500.004-.01-500.004-.01l.004-325.09c0 .007 500.005.01 500.005.01z"/><path d="M249.574 461.298V400h125v55.944c67.42 13.252 150 44.056 150 44.056h-400s63.54-23.954 125-38.702z"/></g></svg>